<svg width="507.813" height="76.954" viewBox="0 0 507.813 76.954" xmlns="http://www.w3.org/2000/svg"><g id="svgGroup" stroke-linecap="round" fill-rule="evenodd" font-size="18pt" stroke="#2CA0B7" stroke-width="0.25mm" fill="#2CA0B7" style="stroke:#000; stroke-width:0.25mm; fill:#2CA0B7; "><path d="M 4.5 37 L 0 37 L 0 2 L 6.65 2 L 16.35 24.15 L 25.9 2 L 32.7 2 L 32.7 37 L 27.95 37 L 27.95 8.05 L 18.6 29.1 L 13.9 29.1 L 4.5 8.05 L 4.5 37 Z M 252.35 35.75 L 248 37.5 L 244.1 27.5 L 227.9 27.5 L 224 37.4 L 219.95 35.75 L 233.65 2 L 238.85 2 L 252.35 35.75 Z M 62.25 25.85 L 44.05 25.85 A 12.044 12.044 0 0 0 44.62 28.362 Q 45.214 30.06 46.321 31.262 A 7.49 7.49 0 0 0 46.6 31.55 A 7.072 7.072 0 0 0 50.412 33.455 A 10.011 10.011 0 0 0 52.15 33.6 A 18.365 18.365 0 0 0 54.287 33.481 A 13.788 13.788 0 0 0 56.2 33.125 Q 58 32.65 59.65 31.9 L 60.7 35.75 A 20.385 20.385 0 0 1 58.533 36.563 A 25.932 25.932 0 0 1 56.65 37.075 A 19.457 19.457 0 0 1 54.104 37.485 A 26.013 26.013 0 0 1 51.6 37.6 A 14.159 14.159 0 0 1 47.727 37.097 A 10.554 10.554 0 0 1 42.725 34.025 Q 39.821 30.855 39.492 25.424 A 23.562 23.562 0 0 1 39.45 24 A 17.679 17.679 0 0 1 39.866 20.089 A 14.42 14.42 0 0 1 40.925 17.025 A 12.321 12.321 0 0 1 43.433 13.484 A 11.444 11.444 0 0 1 45.05 12.175 A 10.524 10.524 0 0 1 50.18 10.439 A 13.103 13.103 0 0 1 51.2 10.4 A 14.277 14.277 0 0 1 53.935 10.648 Q 55.607 10.974 56.942 11.73 A 8.606 8.606 0 0 1 57.425 12.025 Q 59.9 13.65 61.15 16.4 A 14.093 14.093 0 0 1 62.363 21.332 A 16.717 16.717 0 0 1 62.4 22.45 A 37.602 37.602 0 0 1 62.255 25.798 A 34.535 34.535 0 0 1 62.25 25.85 Z M 128.75 37 L 124.05 37 L 113.6 12.2 L 117.7 10.5 L 126.55 31.9 L 135.4 10.5 L 139.25 12.2 L 128.75 37 Z M 69.4 28.05 L 69.4 15.85 L 64.9 15.85 L 64.9 11.95 L 69.5 11.95 L 70.45 3.75 L 73.9 3.75 L 73.9 11.95 L 81.1 11.95 L 81.1 15.85 L 73.9 15.85 L 73.9 28.4 A 10.779 10.779 0 0 0 73.984 29.798 Q 74.221 31.601 75.125 32.45 Q 76.35 33.6 78.05 33.6 Q 79.3 33.6 80.425 33.2 A 12.866 12.866 0 0 0 82.014 32.516 A 11.384 11.384 0 0 0 82.5 32.25 L 83.75 35.85 A 9.273 9.273 0 0 1 82.941 36.278 Q 82.139 36.657 81.05 37.025 Q 79.35 37.6 77.5 37.6 A 9.163 9.163 0 0 1 74.909 37.252 A 6.967 6.967 0 0 1 71.575 35.125 Q 69.4 32.65 69.4 28.05 Z M 190.85 36.9 L 190.85 2.1 Q 193.2 1.85 195.45 1.725 Q 197.384 1.618 199.797 1.602 A 128.288 128.288 0 0 1 200.6 1.6 Q 204.781 1.6 207.905 2.809 A 14.6 14.6 0 0 1 208.375 3 A 15.489 15.489 0 0 1 212.02 5.16 A 13.612 13.612 0 0 1 213.775 6.85 Q 215.9 9.3 216.925 12.525 A 22.128 22.128 0 0 1 217.911 18.023 A 25.753 25.753 0 0 1 217.95 19.45 A 22.654 22.654 0 0 1 217.209 25.299 A 20.901 20.901 0 0 1 216.9 26.35 Q 215.85 29.6 213.675 32.075 A 14.484 14.484 0 0 1 209.547 35.3 A 17.628 17.628 0 0 1 208.125 35.975 A 17.178 17.178 0 0 1 204.419 37.044 Q 202.4 37.4 200.05 37.4 Q 197.2 37.4 195.075 37.25 Q 192.95 37.1 190.85 36.9 Z M 267.054 37.221 A 18.255 18.255 0 0 0 270.85 37.6 Q 274.75 37.6 277.8 36.175 Q 280.85 34.75 283 32.275 A 16.319 16.319 0 0 0 283.662 31.461 A 17.367 17.367 0 0 0 286.275 26.5 A 20.244 20.244 0 0 0 286.683 25.152 Q 287.393 22.471 287.4 19.509 A 25.061 25.061 0 0 0 287.4 19.45 Q 287.4 15.729 286.293 12.501 A 19.333 19.333 0 0 0 286.275 12.45 Q 285.15 9.2 283 6.7 Q 280.85 4.2 277.775 2.8 A 14.963 14.963 0 0 0 274.829 1.819 A 18.21 18.21 0 0 0 270.85 1.4 A 19.675 19.675 0 0 0 267.736 1.638 A 14.83 14.83 0 0 0 262 3.775 Q 258.3 6.15 256.325 10.225 A 18.994 18.994 0 0 0 254.907 14.282 A 23.091 23.091 0 0 0 254.35 19.45 A 24.461 24.461 0 0 0 254.367 20.373 Q 254.488 23.58 255.457 26.448 A 20.188 20.188 0 0 0 255.475 26.5 A 19.688 19.688 0 0 0 255.695 27.111 A 17.176 17.176 0 0 0 258.725 32.275 Q 260.85 34.75 263.9 36.175 A 14.571 14.571 0 0 0 267.054 37.221 Z M 105.05 13.1 L 105.05 11 L 109.15 11 L 109.15 30.7 Q 109.15 32.6 110.075 33.175 Q 111 33.75 112.1 33.75 L 111.15 37.25 A 8.861 8.861 0 0 1 109.018 37.014 Q 106.104 36.29 105.35 33.35 A 10.654 10.654 0 0 1 103.795 35.063 A 14.249 14.249 0 0 1 102.225 36.275 A 7.464 7.464 0 0 1 99.748 37.327 Q 98.585 37.6 97.2 37.6 Q 93.95 37.6 91.3 35.95 A 11.473 11.473 0 0 1 87.593 32.187 A 13.961 13.961 0 0 1 87.075 31.275 A 13.614 13.614 0 0 1 85.76 27.304 A 18.322 18.322 0 0 1 85.5 24.15 A 16.571 16.571 0 0 1 85.998 20.016 A 13.984 13.984 0 0 1 87.075 17.15 Q 88.65 14.05 91.425 12.225 A 11.149 11.149 0 0 1 97.022 10.422 A 13.694 13.694 0 0 1 97.8 10.4 A 11.292 11.292 0 0 1 100.197 10.645 A 9.352 9.352 0 0 1 101.875 11.175 A 13.001 13.001 0 0 1 104.018 12.322 A 11.052 11.052 0 0 1 105.05 13.1 Z M 156 28.85 L 156 0 L 160.5 0 L 160.5 28.4 Q 160.5 31.1 161.625 32.4 A 3.682 3.682 0 0 0 163.917 33.638 A 5.362 5.362 0 0 0 164.75 33.7 Q 165.7 33.7 166.625 33.475 A 11.096 11.096 0 0 0 167.357 33.272 Q 167.707 33.161 168.006 33.035 A 5.971 5.971 0 0 0 168.2 32.95 L 169.3 36.6 A 9.075 9.075 0 0 1 168.499 36.908 Q 168.101 37.042 167.644 37.161 A 17.489 17.489 0 0 1 167.075 37.3 A 11.908 11.908 0 0 1 165.497 37.543 A 15.257 15.257 0 0 1 164.15 37.6 A 10.431 10.431 0 0 1 161.705 37.323 A 8.772 8.772 0 0 1 160 36.725 A 6.341 6.341 0 0 1 157.338 34.342 A 7.928 7.928 0 0 1 157.075 33.9 Q 156.208 32.327 156.04 30.006 A 16.053 16.053 0 0 1 156 28.85 Z M 172.8 28.85 L 172.8 0 L 177.3 0 L 177.3 28.4 Q 177.3 31.1 178.425 32.4 A 3.682 3.682 0 0 0 180.717 33.638 A 5.362 5.362 0 0 0 181.55 33.7 Q 182.5 33.7 183.425 33.475 A 11.096 11.096 0 0 0 184.157 33.272 Q 184.507 33.161 184.806 33.035 A 5.971 5.971 0 0 0 185 32.95 L 186.1 36.6 A 9.075 9.075 0 0 1 185.299 36.908 Q 184.901 37.042 184.444 37.161 A 17.489 17.489 0 0 1 183.875 37.3 A 11.908 11.908 0 0 1 182.297 37.543 A 15.257 15.257 0 0 1 180.95 37.6 A 10.431 10.431 0 0 1 178.505 37.323 A 8.772 8.772 0 0 1 176.8 36.725 A 6.341 6.341 0 0 1 174.138 34.342 A 7.928 7.928 0 0 1 173.875 33.9 Q 173.008 32.327 172.84 30.006 A 16.053 16.053 0 0 1 172.8 28.85 Z M 270.85 33.5 A 13.258 13.258 0 0 0 273.824 33.183 A 9.658 9.658 0 0 0 277.3 31.65 A 11.235 11.235 0 0 0 280.963 27.215 A 13.626 13.626 0 0 0 281.225 26.625 A 17.054 17.054 0 0 0 282.386 22.161 A 21.752 21.752 0 0 0 282.55 19.45 Q 282.55 16.75 281.75 14.25 Q 280.95 11.75 279.45 9.775 Q 277.95 7.8 275.775 6.65 A 9.961 9.961 0 0 0 272.067 5.559 A 12.289 12.289 0 0 0 270.85 5.5 A 12.043 12.043 0 0 0 267.604 5.92 A 9.772 9.772 0 0 0 264.575 7.35 A 11.574 11.574 0 0 0 260.775 11.913 A 13.892 13.892 0 0 0 260.575 12.35 Q 259.2 15.5 259.2 19.45 Q 259.2 22.15 259.975 24.675 A 14.69 14.69 0 0 0 262.065 28.948 A 13.962 13.962 0 0 0 262.25 29.2 Q 263.75 31.2 265.925 32.35 A 9.961 9.961 0 0 0 269.633 33.441 A 12.289 12.289 0 0 0 270.85 33.5 Z M 195.6 5.95 L 195.6 33 A 21.783 21.783 0 0 0 197.231 33.169 A 24.642 24.642 0 0 0 197.8 33.2 Q 198.95 33.25 200.2 33.25 Q 204.7 33.25 207.55 31.5 Q 210.4 29.75 211.75 26.625 A 16.146 16.146 0 0 0 212.877 22.588 A 21.251 21.251 0 0 0 213.1 19.45 Q 213.1 15.85 211.75 12.7 Q 210.4 9.55 207.6 7.625 A 10.447 10.447 0 0 0 204.074 6.095 Q 202.654 5.756 200.998 5.708 A 19.004 19.004 0 0 0 200.45 5.7 A 49.115 49.115 0 0 0 199.063 5.719 A 37.098 37.098 0 0 0 197.8 5.775 Q 196.6 5.85 195.6 5.95 Z M 148.25 37 L 143.75 37 L 143.75 11 L 148.25 11 L 148.25 37 Z M 104.65 30.35 L 104.65 16.4 Q 103.3 15.45 101.675 14.875 Q 100.05 14.3 98.25 14.3 Q 95.85 14.3 94.025 15.525 A 8.15 8.15 0 0 0 91.515 18.237 A 9.981 9.981 0 0 0 91.15 18.925 Q 90.1 21.1 90.1 24 Q 90.1 26.8 91.15 28.975 A 8.801 8.801 0 0 0 92.703 31.248 A 7.848 7.848 0 0 0 94.05 32.375 Q 95.9 33.6 98.2 33.6 Q 100.1 33.6 101.8 32.675 Q 103.5 31.75 104.65 30.35 Z M 236 6.7 L 229.4 23.5 L 242.55 23.5 L 236 6.7 Z M 44 22.2 L 58.25 22.2 Q 58.25 18.4 56.35 16.35 A 6.244 6.244 0 0 0 52.87 14.462 A 9.198 9.198 0 0 0 51.1 14.3 A 6.79 6.79 0 0 0 48.544 14.767 A 6.262 6.262 0 0 0 46.3 16.325 Q 44.719 18.01 44.176 20.96 A 16.01 16.01 0 0 0 44 22.2 Z M 146 6.55 Q 144.7 6.55 143.775 5.6 A 3.322 3.322 0 0 1 143.096 4.609 A 2.996 2.996 0 0 1 142.85 3.4 A 3.994 3.994 0 0 1 142.965 2.416 A 2.794 2.794 0 0 1 143.7 1.1 A 2.831 2.831 0 0 1 145.172 0.329 A 4.132 4.132 0 0 1 146 0.25 A 3.029 3.029 0 0 1 148.196 1.146 A 3.7 3.7 0 0 1 148.225 1.175 A 3.03 3.03 0 0 1 149.15 3.359 A 3.627 3.627 0 0 1 149.15 3.4 Q 149.15 4.8 148.3 5.675 A 2.824 2.824 0 0 1 146.748 6.485 A 4.088 4.088 0 0 1 146 6.55 Z" /></g></svg>

