<svg xmlns="http://www.w3.org/2000/svg" width="200.024" height="35.758" viewBox="0 0 200.024 35.758">
    <g data-name="Group 2484">
        <g data-name="Group 839">
            <g data-name="Group 838">
                <path data-name="Path 2103" d="m3660.218 3424.533-9.732-17.155h4.684l5.048 8.628 1.048-1.978-4.989-8.944h-7.165l-9.379-16.309h12.119l5.706 10.071h-4.847l-3.265-5.869h-2.426l4.833 8.332h6.883l7.5 12.388z" transform="translate(-3639.731 -3388.775)" style="fill:#eb0c29"/>
                <path data-name="Path 2104" d="M3678.115 3388.775h26.677l-2.415 4.337h-17.114l1.234 2.159h14.521l-2.295 4.076h-10.031l5.092 8.245-2.4 4.363z" transform="translate(-3663.519 -3388.775)" style="fill:#52abff"/>
            </g>
        </g>
        <path data-name="Path 57946" d="M11.64-20.087a13.69 13.69 0 0 1-4.533-.583 3.766 3.766 0 0 1-2.227-1.981 9.77 9.77 0 0 1-.648-3.989v-1.14h2.927v1.01a5.746 5.746 0 0 0 .414 2.512 2.259 2.259 0 0 0 1.528 1.1 14.8 14.8 0 0 0 3.5.3 15.339 15.339 0 0 0 3.626-.311 2.341 2.341 0 0 0 1.58-1.1 5.424 5.424 0 0 0 .414-2.422 6.256 6.256 0 0 0-.389-2.564 3.171 3.171 0 0 0-1.645-1.373A30.3 30.3 0 0 0 11.847-32a27.181 27.181 0 0 1-4.753-1.619 4.623 4.623 0 0 1-2.2-2.124 9.24 9.24 0 0 1-.66-3.924 9.246 9.246 0 0 1 .648-3.872A3.839 3.839 0 0 1 7.12-45.5a13.532 13.532 0 0 1 4.546-.6h2.124a13.82 13.82 0 0 1 4.455.557 3.7 3.7 0 0 1 2.2 1.9 9.153 9.153 0 0 1 .648 3.859v1.384h-2.926v-1.088a5.5 5.5 0 0 0-.414-2.448 2.271 2.271 0 0 0-1.528-1.088 14.5 14.5 0 0 0-3.445-.3 15.212 15.212 0 0 0-3.587.311 2.429 2.429 0 0 0-1.606 1.075 4.9 4.9 0 0 0-.427 2.318 6.171 6.171 0 0 0 .389 2.538 3.064 3.064 0 0 0 1.632 1.347 29.978 29.978 0 0 0 4.274 1.3 27.4 27.4 0 0 1 4.766 1.567 4.679 4.679 0 0 1 2.228 2.124 9.264 9.264 0 0 1 .7 4.054 9.77 9.77 0 0 1-.649 3.99 3.86 3.86 0 0 1-2.24 2.007 13.462 13.462 0 0 1-4.6.609zM29.071-35.5v8.288a7.944 7.944 0 0 0 .35 2.758 2.035 2.035 0 0 0 1.347 1.191 11.206 11.206 0 0 0 3.173.324h2.383v2.8h-2.953a13.544 13.544 0 0 1-4.271-.531 3.924 3.924 0 0 1-2.279-2.007 9.9 9.9 0 0 1-.751-4.351v-16.034h3v4.792h7.252v2.77zm14.116 7.926a8.924 8.924 0 0 0 .376 3.043 2.108 2.108 0 0 0 1.425 1.269 12 12 0 0 0 3.354.3h6.708v2.823h-7.3q-3.782 0-5.634-1.787a7.164 7.164 0 0 1-1.852-5.387V-31.1q0-3.678 1.813-5.426t5.643-1.744h1.243q3.808 0 5.634 1.748t1.826 5.422v3.03H43.188zm5.18-7.9a12.128 12.128 0 0 0-3.38.337 2.146 2.146 0 0 0-1.425 1.282 8.82 8.82 0 0 0-.376 3.017v.233H53.5v-.495a7.837 7.837 0 0 0-.376-2.849 2.124 2.124 0 0 0-1.412-1.2 12.3 12.3 0 0 0-3.344-.324zm15.1 7.9a8.924 8.924 0 0 0 .376 3.043 2.108 2.108 0 0 0 1.425 1.269 12 12 0 0 0 3.354.3h6.708v2.823h-7.3q-3.782 0-5.634-1.787a7.164 7.164 0 0 1-1.852-5.387V-31.1q0-3.678 1.813-5.426T68-38.27h1.243q3.808 0 5.634 1.748T76.7-31.1v3.03H63.468zm5.18-7.9a12.128 12.128 0 0 0-3.38.337 2.146 2.146 0 0 0-1.425 1.282 8.82 8.82 0 0 0-.376 3.017v.233h10.311v-.495a7.836 7.836 0 0 0-.376-2.849 2.124 2.124 0 0 0-1.412-1.2 12.3 12.3 0 0 0-3.34-.324zm33.594-2.953a7.814 7.814 0 0 1 4.52 1.088 5.285 5.285 0 0 1 2.072 3.043 19.974 19.974 0 0 1 .531 5.09v9.065h-2.927V-29.2a15.29 15.29 0 0 0-.363-3.782 3.3 3.3 0 0 0-1.386-2.007 5.668 5.668 0 0 0-3.043-.66 5.479 5.479 0 0 0-2.979.66 3.323 3.323 0 0 0-1.373 2.02 15.317 15.317 0 0 0-.363 3.769v9.065h-2.924V-29.2a15.834 15.834 0 0 0-.35-3.782 3.248 3.248 0 0 0-1.373-2.007 5.668 5.668 0 0 0-3.043-.66 5.538 5.538 0 0 0-3 .66 3.272 3.272 0 0 0-1.36 2.02 15.863 15.863 0 0 0-.35 3.769v9.065H81.6V-38.27h2.357l.155 3.782a5.124 5.124 0 0 1 1.956-3.03 6.739 6.739 0 0 1 3.769-.907 7.7 7.7 0 0 1 4.377 1.062 5.6 5.6 0 0 1 2.124 3.574 5.784 5.784 0 0 1 1.9-3.574 6.48 6.48 0 0 1 4.005-1.062z" transform="translate(45.408 49.159)" style="fill:#fff"/>
        <path data-name="Path 57947" d="M200.79-20.424h10.361v2.824H200.79z" transform="translate(-40.475 37.944)" style="fill:#eb0c29"/>
        <path data-name="Path 57948" d="M232.375-20.36h-2.927V-43.7a2.659 2.659 0 0 1 .622-1.93 2.617 2.617 0 0 1 1.943-.635h12.717v2.8h-11.319a1.2 1.2 0 0 0-.829.207 1.2 1.2 0 0 0-.207.829v7.641h11.837v2.694h-11.837zm20.255-18.131v18.131h-2.93v-18.131zm-1.476-4.4a1.944 1.944 0 0 1-1.412-.427 1.987 1.987 0 0 1-.427-1.438 1.944 1.944 0 0 1 .427-1.412 1.944 1.944 0 0 1 1.412-.427 1.987 1.987 0 0 1 1.438.427 1.944 1.944 0 0 1 .427 1.412 1.987 1.987 0 0 1-.427 1.438 1.987 1.987 0 0 1-1.439.424z" transform="translate(-52.994 49.38)" style="fill:#52abfc"/>
    </g>
</svg>
