<svg xmlns="http://www.w3.org/2000/svg" width="285.076" height="137.736" viewBox="0 0 285.076 137.736">
    <defs>
        <filter id="l69i6dmjva" x="0" y="73.552" width="204.714" height="64.184" filterUnits="userSpaceOnUse">
            <feOffset dy="3"/>
            <feGaussianBlur stdDeviation="3" result="blur"/>
            <feFlood flood-opacity=".957"/>
            <feComposite operator="in" in2="blur"/>
            <feComposite in="SourceGraphic"/>
        </filter>
        <filter id="skajeedphb" x="96.768" y="0" width="65.098" height="81.549" filterUnits="userSpaceOnUse">
            <feOffset dy="3"/>
            <feGaussianBlur stdDeviation="3" result="blur-2"/>
            <feFlood flood-opacity=".957"/>
            <feComposite operator="in" in2="blur-2"/>
            <feComposite in="SourceGraphic"/>
        </filter>
        <filter id="h7wxz8h5lc" x="122.707" y="0" width="65.411" height="59.196" filterUnits="userSpaceOnUse">
            <feOffset dy="3"/>
            <feGaussianBlur stdDeviation="3" result="blur-3"/>
            <feFlood flood-opacity=".957"/>
            <feComposite operator="in" in2="blur-3"/>
            <feComposite in="SourceGraphic"/>
        </filter>
        <filter id="q3y1jvia3d" x="196.558" y="99.22" width="36.4" height="23.014" filterUnits="userSpaceOnUse">
            <feOffset dy="3"/>
            <feGaussianBlur stdDeviation="3" result="blur-4"/>
            <feFlood flood-opacity=".957"/>
            <feComposite operator="in" in2="blur-4"/>
            <feComposite in="SourceGraphic"/>
        </filter>
        <filter id="5l6ig7k0be" x="225.216" y="73.046" width="59.86" height="64.598" filterUnits="userSpaceOnUse">
            <feOffset dy="3"/>
            <feGaussianBlur stdDeviation="3" result="blur-5"/>
            <feFlood flood-opacity=".957"/>
            <feComposite operator="in" in2="blur-5"/>
            <feComposite in="SourceGraphic"/>
        </filter>
    </defs>
    <g data-name="Group 2486">
        <g style="filter:url(#l69i6dmjva)" transform="translate(-.002 .004)">
            <path data-name="Path 57941" d="M17.388.092a24.312 24.312 0 0 1-8.05-1.035 6.689 6.689 0 0 1-3.956-3.519 17.352 17.352 0 0 1-1.15-7.084v-2.024h5.2v1.794a10.2 10.2 0 0 0 .736 4.462 4.011 4.011 0 0 0 2.712 1.955 26.287 26.287 0 0 0 6.21.529 27.242 27.242 0 0 0 6.44-.552 4.157 4.157 0 0 0 2.806-1.955 9.633 9.633 0 0 0 .736-4.3 11.11 11.11 0 0 0-.69-4.554 5.632 5.632 0 0 0-2.921-2.438 53.816 53.816 0 0 0-7.7-2.438 48.272 48.272 0 0 1-8.441-2.875 8.21 8.21 0 0 1-3.91-3.772 16.411 16.411 0 0 1-1.173-6.969 16.421 16.421 0 0 1 1.15-6.877 6.817 6.817 0 0 1 3.979-3.473 24.031 24.031 0 0 1 8.073-1.058h3.772a24.544 24.544 0 0 1 7.912.989 6.578 6.578 0 0 1 3.91 3.381 16.255 16.255 0 0 1 1.15 6.854v2.438h-5.2v-1.932a9.769 9.769 0 0 0-.736-4.347 4.033 4.033 0 0 0-2.714-1.932 25.75 25.75 0 0 0-6.118-.529 27.016 27.016 0 0 0-6.371.552 4.315 4.315 0 0 0-2.852 1.909 8.694 8.694 0 0 0-.759 4.117 10.959 10.959 0 0 0 .69 4.508 5.441 5.441 0 0 0 2.9 2.392 53.241 53.241 0 0 0 7.59 2.3 48.657 48.657 0 0 1 8.464 2.783 8.31 8.31 0 0 1 3.956 3.772 16.452 16.452 0 0 1 1.242 7.2 17.352 17.352 0 0 1-1.15 7.084 6.856 6.856 0 0 1-3.984 3.563A23.907 23.907 0 0 1 20.976.092zm30.958-27.37v14.72a14.109 14.109 0 0 0 .621 4.9 3.615 3.615 0 0 0 2.392 2.116 19.9 19.9 0 0 0 5.635.575h4.232V0h-5.244a24.053 24.053 0 0 1-7.59-.943 6.969 6.969 0 0 1-4.048-3.565Q43.01-7.13 43.01-12.236V-40.71h5.336v8.51h12.88v4.922zM73.416-13.2a15.849 15.849 0 0 0 .667 5.4 3.745 3.745 0 0 0 2.53 2.254 21.307 21.307 0 0 0 5.957.529h11.914V0H81.512Q74.8 0 71.507-3.174t-3.289-9.568v-6.716q0-6.532 3.22-9.637T81.466-32.2h2.208q6.762 0 10.005 3.105t3.243 9.637v5.382H73.416zm9.2-14.03a21.539 21.539 0 0 0-6 .6 3.811 3.811 0 0 0-2.53 2.277 15.664 15.664 0 0 0-.67 5.353v.414h18.308v-.874a13.918 13.918 0 0 0-.667-5.06 3.772 3.772 0 0 0-2.507-2.139 21.852 21.852 0 0 0-5.934-.573zm26.818 14.03a15.849 15.849 0 0 0 .666 5.4 3.745 3.745 0 0 0 2.53 2.254 21.307 21.307 0 0 0 5.957.529H130.5V0h-12.97q-6.716 0-10.005-3.174t-3.289-9.568v-6.716q0-6.532 3.22-9.637t10.028-3.105h2.208q6.762 0 10 3.105t3.243 9.637v5.382h-23.501zm9.2-14.03a21.539 21.539 0 0 0-6 .6 3.811 3.811 0 0 0-2.53 2.277 15.664 15.664 0 0 0-.67 5.353v.414h18.308v-.874a13.918 13.918 0 0 0-.667-5.06 3.772 3.772 0 0 0-2.507-2.139 21.852 21.852 0 0 0-5.934-.573zm59.666-5.246q5.29 0 8.027 1.932A9.387 9.387 0 0 1 190-25.139a35.473 35.473 0 0 1 .943 9.039V0h-5.2v-16.1a27.155 27.155 0 0 0-.644-6.716 5.859 5.859 0 0 0-2.461-3.565 10.067 10.067 0 0 0-5.405-1.173 9.73 9.73 0 0 0-5.29 1.173 5.9 5.9 0 0 0-2.438 3.588 27.2 27.2 0 0 0-.644 6.693V0h-5.2v-16.1a28.122 28.122 0 0 0-.621-6.716 5.769 5.769 0 0 0-2.438-3.565 10.066 10.066 0 0 0-5.4-1.173 9.835 9.835 0 0 0-5.336 1.173 5.811 5.811 0 0 0-2.415 3.588 28.172 28.172 0 0 0-.621 6.693V0h-5.2v-32.2h4.186l.276 6.716a9.1 9.1 0 0 1 3.473-5.382 11.968 11.968 0 0 1 6.693-1.61q5.014 0 7.774 1.886t3.772 6.348q.92-4.462 3.381-6.348t7.115-1.886z" transform="translate(4.77 125.64)" style="fill:#fff"/>
        </g>
        <g data-name="Group 2485">
            <g style="filter:url(#skajeedphb)" transform="translate(-.002 .004)">
                <path data-name="Path 57933" d="m3676.141 3452.325-17.3-30.487h8.324l8.972 15.333 1.862-3.516-8.868-15.9H3656.4l-16.669-28.984h21.538l10.14 17.9h-8.609l-5.8-10.431h-4.312l8.589 14.807h12.223l13.328 22.016z" transform="translate(-3533.96 -3382.78)" style="fill:#eb0c29"/>
            </g>
            <g style="filter:url(#h7wxz8h5lc)" transform="translate(-.002 .004)">
                <path data-name="Path 57934" d="M3678.115 3388.775h47.411l-4.291 7.708h-30.417l2.194 3.837h25.806l-4.078 7.244h-17.827l9.049 14.654-4.259 7.753z" transform="translate(-3546.41 -3382.78)" style="fill:#52abff"/>
            </g>
        </g>
        <g style="filter:url(#q3y1jvia3d)" transform="translate(-.002 .004)">
            <path data-name="Path 57942" d="M200.79-20.424h18.4v5.014h-18.4z" transform="translate(4.77 125.64)" style="fill:#eb0c29"/>
        </g>
        <g style="filter:url(#5l6ig7k0be)" transform="translate(-.002 .004)">
            <path data-name="Path 57943" d="M234.646 0h-5.2v-41.446a4.722 4.722 0 0 1 1.1-3.427A4.648 4.648 0 0 1 234-46h22.586v4.968h-20.1a2.131 2.131 0 0 0-1.472.368 2.131 2.131 0 0 0-.368 1.472v13.57h21.022v4.784h-21.022zm35.972-32.2V0h-5.2v-32.2zM268-40.02a3.453 3.453 0 0 1-2.507-.759 3.528 3.528 0 0 1-.759-2.553 3.453 3.453 0 0 1 .759-2.507A3.453 3.453 0 0 1 268-46.6a3.529 3.529 0 0 1 2.553.759 3.453 3.453 0 0 1 .759 2.507 3.528 3.528 0 0 1-.759 2.553 3.529 3.529 0 0 1-2.553.761z" transform="translate(4.77 125.64)" style="fill:#52abfc"/>
        </g>
    </g>
</svg>
