<svg xmlns="http://www.w3.org/2000/svg" width="365.844" height="224.085" viewBox="-20 0 495.844 234.085">
    <g data-name="Group 2915">
        <g data-name="Group 912" transform="translate(408.466 10.435)">
            <circle data-name="Ellipse 1" cx="3.146" cy="3.146" style="fill:#e7dbae" r="3.146"/>
            <circle data-name="Ellipse 2" cx="3.146" cy="3.146" transform="translate(20.271)" style="fill:#e7dbae" r="3.146"/>
            <circle data-name="Ellipse 3" cx="3.146" cy="3.146" transform="translate(40.543)" style="fill:#e7dbae" r="3.146"/>
            <circle data-name="Ellipse 4" cx="3.146" cy="3.146" transform="translate(60.814)" style="fill:#e7dbae" r="3.146"/>
            <circle data-name="Ellipse 5" cx="3.146" cy="3.146" transform="translate(81.086)" style="fill:#e7dbae" r="3.146"/>
            <circle data-name="Ellipse 1" cx="3.146" cy="3.146" transform="translate(0 29.359)" style="fill:#e7dbae" r="3.146"/>
            <circle data-name="Ellipse 2" cx="3.146" cy="3.146" transform="translate(20.271 29.359)" style="fill:#e7dbae" r="3.146"/>
            <circle data-name="Ellipse 3" cx="3.146" cy="3.146" transform="translate(40.543 29.359)" style="fill:#e7dbae" r="3.146"/>
            <circle data-name="Ellipse 4" cx="3.146" cy="3.146" transform="translate(60.814 29.359)" style="fill:#e7dbae" r="3.146"/>
            <circle data-name="Ellipse 5" cx="3.146" cy="3.146" transform="translate(81.086 29.359)" style="fill:#e7dbae" r="3.146"/>
            <circle data-name="Ellipse 1" cx="3.146" cy="3.146" transform="translate(0 14.679)" style="fill:#e7dbae" r="3.146"/>
            <circle data-name="Ellipse 2" cx="3.146" cy="3.146" transform="translate(20.271 14.679)" style="fill:#e7dbae" r="3.146"/>
            <circle data-name="Ellipse 3" cx="3.146" cy="3.146" transform="translate(40.543 14.679)" style="fill:#e7dbae" r="3.146"/>
            <circle data-name="Ellipse 4" cx="3.146" cy="3.146" transform="translate(60.814 14.679)" style="fill:#e7dbae" r="3.146"/>
            <circle data-name="Ellipse 5" cx="3.146" cy="3.146" transform="translate(81.086 14.679)" style="fill:#e7dbae" r="3.146"/>
        </g>
        <g data-name="Group 913" transform="translate(198.327 198.435)">
            <circle data-name="Ellipse 1" cx="3.146" cy="3.146" style="fill:#e7dbae" r="3.146"/>
            <circle data-name="Ellipse 2" cx="3.146" cy="3.146" transform="translate(20.271)" style="fill:#e7dbae" r="3.146"/>
            <circle data-name="Ellipse 3" cx="3.146" cy="3.146" transform="translate(40.543)" style="fill:#e7dbae" r="3.146"/>
            <circle data-name="Ellipse 4" cx="3.146" cy="3.146" transform="translate(60.814)" style="fill:#e7dbae" r="3.146"/>
            <circle data-name="Ellipse 5" cx="3.146" cy="3.146" transform="translate(81.086)" style="fill:#e7dbae" r="3.146"/>
            <circle data-name="Ellipse 1" cx="3.146" cy="3.146" transform="translate(0 29.359)" style="fill:#e7dbae" r="3.146"/>
            <circle data-name="Ellipse 2" cx="3.146" cy="3.146" transform="translate(20.271 29.359)" style="fill:#e7dbae" r="3.146"/>
            <circle data-name="Ellipse 3" cx="3.146" cy="3.146" transform="translate(40.543 29.359)" style="fill:#e7dbae" r="3.146"/>
            <circle data-name="Ellipse 4" cx="3.146" cy="3.146" transform="translate(60.814 29.359)" style="fill:#e7dbae" r="3.146"/>
            <circle data-name="Ellipse 5" cx="3.146" cy="3.146" transform="translate(81.086 29.359)" style="fill:#e7dbae" r="3.146"/>
            <circle data-name="Ellipse 1" cx="3.146" cy="3.146" transform="translate(0 14.679)" style="fill:#e7dbae" r="3.146"/>
            <circle data-name="Ellipse 2" cx="3.146" cy="3.146" transform="translate(20.271 14.679)" style="fill:#e7dbae" r="3.146"/>
            <circle data-name="Ellipse 3" cx="3.146" cy="3.146" transform="translate(40.543 14.679)" style="fill:#e7dbae" r="3.146"/>
            <circle data-name="Ellipse 4" cx="3.146" cy="3.146" transform="translate(60.814 14.679)" style="fill:#e7dbae" r="3.146"/>
            <circle data-name="Ellipse 5" cx="3.146" cy="3.146" transform="translate(81.086 14.679)" style="fill:#e7dbae" r="3.146"/>
        </g>
        <g data-name="Group 914">
            <circle data-name="Ellipse 1" cx="3.146" cy="3.146" style="fill:#e7dbae" r="3.146"/>
            <circle data-name="Ellipse 2" cx="3.146" cy="3.146" transform="translate(20.271)" style="fill:#e7dbae" r="3.146"/>
            <circle data-name="Ellipse 3" cx="3.146" cy="3.146" transform="translate(40.543)" style="fill:#e7dbae" r="3.146"/>
            <circle data-name="Ellipse 4" cx="3.146" cy="3.146" transform="translate(60.814)" style="fill:#e7dbae" r="3.146"/>
            <circle data-name="Ellipse 5" cx="3.146" cy="3.146" transform="translate(81.086)" style="fill:#e7dbae" r="3.146"/>
            <circle data-name="Ellipse 1" cx="3.146" cy="3.146" transform="translate(0 29.359)" style="fill:#e7dbae" r="3.146"/>
            <circle data-name="Ellipse 2" cx="3.146" cy="3.146" transform="translate(20.271 29.359)" style="fill:#e7dbae" r="3.146"/>
            <circle data-name="Ellipse 3" cx="3.146" cy="3.146" transform="translate(40.543 29.359)" style="fill:#e7dbae" r="3.146"/>
            <circle data-name="Ellipse 4" cx="3.146" cy="3.146" transform="translate(60.814 29.359)" style="fill:#e7dbae" r="3.146"/>
            <circle data-name="Ellipse 5" cx="3.146" cy="3.146" transform="translate(81.086 29.359)" style="fill:#e7dbae" r="3.146"/>
            <circle data-name="Ellipse 1" cx="3.146" cy="3.146" transform="translate(0 14.679)" style="fill:#e7dbae" r="3.146"/>
            <circle data-name="Ellipse 2" cx="3.146" cy="3.146" transform="translate(20.271 14.679)" style="fill:#e7dbae" r="3.146"/>
            <circle data-name="Ellipse 3" cx="3.146" cy="3.146" transform="translate(40.543 14.679)" style="fill:#e7dbae" r="3.146"/>
            <circle data-name="Ellipse 4" cx="3.146" cy="3.146" transform="translate(60.814 14.679)" style="fill:#e7dbae" r="3.146"/>
            <circle data-name="Ellipse 5" cx="3.146" cy="3.146" transform="translate(81.086 14.679)" style="fill:#e7dbae" r="3.146"/>
        </g>
    </g>
</svg>
